<svg width="4950" height="4243" viewBox="0 0 4950 4243" fill="none" xmlns="http://www.w3.org/2000/svg">
<rect x="0.707107" y="353.553" width="499" height="499" transform="rotate(-45 0.707107 353.553)" fill="#FFFFFF" stroke="none"/>
<rect x="0.707107" y="1060.55" width="499" height="499" transform="rotate(-45 0.707107 1060.55)" fill="#FFFFFF" stroke="none"/>
<rect x="707.707" y="353.553" width="499" height="499" transform="rotate(-45 707.707 353.553)" fill="#FFFFFF" stroke="none"/>
<rect x="1414.71" y="1060.55" width="499" height="499" transform="rotate(-45 1414.71 1060.55)" fill="#FFFFFF" stroke="none"/>
<path d="M1414.71 353.553L1767.55 0.707067L2120.4 353.553L1767.55 706.4L1414.71 353.553Z" fill="#FFFFFF" stroke="none"/>
<rect x="2121.71" y="1060.55" width="499" height="499" transform="rotate(-45 2121.71 1060.55)" fill="#FFFFFF" stroke="none"/>
<rect x="2121.71" y="353.553" width="499" height="499" transform="rotate(-45 2121.71 353.553)" fill="#FFFFFF" stroke="none"/>
<rect x="2828.71" y="353.553" width="499" height="499" transform="rotate(-45 2828.71 353.553)" fill="#FFFFFF" stroke="none"/>
<rect x="2828.71" y="1060.55" width="499" height="499" transform="rotate(-45 2828.71 1060.55)" fill="#FFFFFF" stroke="none"/>
<rect x="3535.71" y="353.553" width="499" height="499" transform="rotate(-45 3535.71 353.553)" fill="#FFFFFF" stroke="none"/>
<rect x="3535.71" y="1060.55" width="499" height="499" transform="rotate(-45 3535.71 1060.55)" fill="#FFFFFF" stroke="none"/>
<rect x="4242.71" y="353.553" width="499" height="499" transform="rotate(-45 4242.71 353.553)" fill="#FFFFFF" stroke="none"/>
<rect x="4242.71" y="1060.55" width="499" height="499" transform="rotate(-45 4242.71 1060.55)" fill="#FFFFFF" stroke="none"/>
<rect x="707.707" y="1060.55" width="499" height="499" transform="rotate(-45 707.707 1060.55)" fill="#FFFFFF" stroke="none"/>
<rect x="0.707107" y="1767.55" width="499" height="499" transform="rotate(-45 0.707107 1767.55)" fill="#FFFFFF" stroke="none"/>
<rect x="0.707107" y="2474.55" width="499" height="499" transform="rotate(-45 0.707107 2474.55)" fill="#FFFFFF" stroke="none"/>
<rect x="707.707" y="1767.55" width="499" height="499" transform="rotate(-45 707.707 1767.55)" fill="#FFFFFF" stroke="none"/>
<rect x="1414.71" y="2474.55" width="499" height="499" transform="rotate(-45 1414.71 2474.55)" fill="#FFFFFF" stroke="none"/>
<path d="M1414.71 1767.55L1767.55 1414.71L2120.4 1767.55L1767.55 2120.4L1414.71 1767.55Z" fill="#FFFFFF" stroke="none"/>
<rect x="2121.71" y="2474.55" width="499" height="499" transform="rotate(-45 2121.71 2474.55)" fill="#FFFFFF" stroke="none"/>
<rect x="2121.71" y="1767.55" width="499" height="499" transform="rotate(-45 2121.71 1767.55)" fill="#FFFFFF" stroke="none"/>
<rect x="2828.71" y="1767.55" width="499" height="499" transform="rotate(-45 2828.71 1767.55)" fill="#FFFFFF" stroke="none"/>
<rect x="2828.71" y="2474.55" width="499" height="499" transform="rotate(-45 2828.71 2474.55)" fill="#FFFFFF" stroke="none"/>
<rect x="3535.71" y="1767.55" width="499" height="499" transform="rotate(-45 3535.71 1767.55)" fill="#FFFFFF" stroke="none"/>
<rect x="3535.71" y="2474.55" width="499" height="499" transform="rotate(-45 3535.71 2474.55)" fill="#FFFFFF" stroke="none"/>
<rect x="4242.71" y="1767.55" width="499" height="499" transform="rotate(-45 4242.71 1767.55)" fill="#FFFFFF" stroke="none"/>
<rect x="4242.71" y="2474.55" width="499" height="499" transform="rotate(-45 4242.71 2474.55)" fill="#FFFFFF" stroke="none"/>
<rect x="707.707" y="2474.55" width="499" height="499" transform="rotate(-45 707.707 2474.55)" fill="#FFFFFF" stroke="none"/>
<rect x="0.707107" y="3181.55" width="499" height="499" transform="rotate(-45 0.707107 3181.55)" fill="#FFFFFF" stroke="none"/>
<rect x="0.707107" y="3888.55" width="499" height="499" transform="rotate(-45 0.707107 3888.55)" fill="#FFFFFF" stroke="none"/>
<rect x="707.707" y="3181.55" width="499" height="499" transform="rotate(-45 707.707 3181.55)" fill="#FFFFFF" stroke="none"/>
<rect x="1414.71" y="3888.55" width="499" height="499" transform="rotate(-45 1414.71 3888.55)" fill="#FFFFFF" stroke="none"/>
<path d="M1414.71 3181.55L1767.55 2828.71L2120.4 3181.55L1767.55 3534.4L1414.71 3181.55Z" fill="#FFFFFF" stroke="none"/>
<rect x="2121.71" y="3888.55" width="499" height="499" transform="rotate(-45 2121.71 3888.55)" fill="#FFFFFF" stroke="none"/>
<rect x="2121.71" y="3181.55" width="499" height="499" transform="rotate(-45 2121.71 3181.55)" fill="#FFFFFF" stroke="none"/>
<rect x="2828.71" y="3181.55" width="499" height="499" transform="rotate(-45 2828.71 3181.55)" fill="#FFFFFF" stroke="none"/>
<rect x="2828.71" y="3888.55" width="499" height="499" transform="rotate(-45 2828.71 3888.55)" fill="#FFFFFF" stroke="none"/>
<rect x="3535.71" y="3181.55" width="499" height="499" transform="rotate(-45 3535.71 3181.55)" fill="#FFFFFF" stroke="none"/>
<rect x="3535.71" y="3888.55" width="499" height="499" transform="rotate(-45 3535.71 3888.55)" fill="#FFFFFF" stroke="none"/>
<rect x="4242.71" y="3181.55" width="499" height="499" transform="rotate(-45 4242.71 3181.55)" fill="#FFFFFF" stroke="none"/>
<rect x="4242.71" y="3888.55" width="499" height="499" transform="rotate(-45 4242.71 3888.55)" fill="#FFFFFF" stroke="none"/>
<rect x="707.707" y="3888.55" width="499" height="499" transform="rotate(-45 707.707 3888.55)" fill="#FFFFFF" stroke="none"/>
</svg>
